<svg width="884" height="367" viewBox="0 0 884 367" fill="none" xmlns="http://www.w3.org/2000/svg">
<rect x="27.5" y="27.5" width="830" height="314" fill="black" fill-opacity="0.3" stroke="#CEB7FF" stroke-width="3"/>
<path d="M349.062 130V113.464H342.667V111.8H357.383V113.464H350.987V130H349.062ZM367.034 116.22C368.144 116.22 369.114 116.437 369.946 116.87C370.796 117.286 371.454 117.927 371.922 118.794C372.408 119.661 372.65 120.753 372.65 122.07V130H370.804V122.252C370.804 120.813 370.44 119.73 369.712 119.002C369.002 118.257 367.996 117.884 366.696 117.884C365.726 117.884 364.876 118.083 364.148 118.482C363.438 118.863 362.883 119.427 362.484 120.172C362.103 120.9 361.912 121.784 361.912 122.824V130H360.066V110.708H361.912V120.094L361.548 119.392C361.982 118.404 362.675 117.633 363.628 117.078C364.582 116.506 365.717 116.22 367.034 116.22ZM377.637 130V116.35H379.483V130H377.637ZM378.573 113.334C378.191 113.334 377.871 113.204 377.611 112.944C377.351 112.684 377.221 112.372 377.221 112.008C377.221 111.644 377.351 111.341 377.611 111.098C377.871 110.838 378.191 110.708 378.573 110.708C378.954 110.708 379.275 110.829 379.535 111.072C379.795 111.315 379.925 111.618 379.925 111.982C379.925 112.363 379.795 112.684 379.535 112.944C379.292 113.204 378.971 113.334 378.573 113.334ZM388.285 130.13C387.158 130.13 386.092 129.974 385.087 129.662C384.082 129.333 383.293 128.925 382.721 128.44L383.553 126.984C384.108 127.4 384.818 127.764 385.685 128.076C386.552 128.371 387.462 128.518 388.415 128.518C389.715 128.518 390.651 128.319 391.223 127.92C391.795 127.504 392.081 126.958 392.081 126.282C392.081 125.779 391.916 125.389 391.587 125.112C391.275 124.817 390.859 124.601 390.339 124.462C389.819 124.306 389.238 124.176 388.597 124.072C387.956 123.968 387.314 123.847 386.673 123.708C386.049 123.569 385.477 123.37 384.957 123.11C384.437 122.833 384.012 122.46 383.683 121.992C383.371 121.524 383.215 120.9 383.215 120.12C383.215 119.375 383.423 118.707 383.839 118.118C384.255 117.529 384.862 117.069 385.659 116.74C386.474 116.393 387.462 116.22 388.623 116.22C389.507 116.22 390.391 116.341 391.275 116.584C392.159 116.809 392.887 117.113 393.459 117.494L392.653 118.976C392.046 118.56 391.396 118.265 390.703 118.092C390.01 117.901 389.316 117.806 388.623 117.806C387.392 117.806 386.482 118.023 385.893 118.456C385.321 118.872 385.035 119.409 385.035 120.068C385.035 120.588 385.191 120.995 385.503 121.29C385.832 121.585 386.257 121.819 386.777 121.992C387.314 122.148 387.895 122.278 388.519 122.382C389.16 122.486 389.793 122.616 390.417 122.772C391.058 122.911 391.639 123.11 392.159 123.37C392.696 123.613 393.121 123.968 393.433 124.436C393.762 124.887 393.927 125.485 393.927 126.23C393.927 127.027 393.702 127.721 393.251 128.31C392.818 128.882 392.176 129.333 391.327 129.662C390.495 129.974 389.481 130.13 388.285 130.13ZM404.119 130V116.35H405.965V130H404.119ZM405.055 113.334C404.674 113.334 404.353 113.204 404.093 112.944C403.833 112.684 403.703 112.372 403.703 112.008C403.703 111.644 403.833 111.341 404.093 111.098C404.353 110.838 404.674 110.708 405.055 110.708C405.436 110.708 405.757 110.829 406.017 111.072C406.277 111.315 406.407 111.618 406.407 111.982C406.407 112.363 406.277 112.684 406.017 112.944C405.774 113.204 405.454 113.334 405.055 113.334ZM414.767 130.13C413.641 130.13 412.575 129.974 411.569 129.662C410.564 129.333 409.775 128.925 409.203 128.44L410.035 126.984C410.59 127.4 411.301 127.764 412.167 128.076C413.034 128.371 413.944 128.518 414.897 128.518C416.197 128.518 417.133 128.319 417.705 127.92C418.277 127.504 418.563 126.958 418.563 126.282C418.563 125.779 418.399 125.389 418.069 125.112C417.757 124.817 417.341 124.601 416.821 124.462C416.301 124.306 415.721 124.176 415.079 124.072C414.438 123.968 413.797 123.847 413.155 123.708C412.531 123.569 411.959 123.37 411.439 123.11C410.919 122.833 410.495 122.46 410.165 121.992C409.853 121.524 409.697 120.9 409.697 120.12C409.697 119.375 409.905 118.707 410.321 118.118C410.737 117.529 411.344 117.069 412.141 116.74C412.956 116.393 413.944 116.22 415.105 116.22C415.989 116.22 416.873 116.341 417.757 116.584C418.641 116.809 419.369 117.113 419.941 117.494L419.135 118.976C418.529 118.56 417.879 118.265 417.185 118.092C416.492 117.901 415.799 117.806 415.105 117.806C413.875 117.806 412.965 118.023 412.375 118.456C411.803 118.872 411.517 119.409 411.517 120.068C411.517 120.588 411.673 120.995 411.985 121.29C412.315 121.585 412.739 121.819 413.259 121.992C413.797 122.148 414.377 122.278 415.001 122.382C415.643 122.486 416.275 122.616 416.899 122.772C417.541 122.911 418.121 123.11 418.641 123.37C419.179 123.613 419.603 123.968 419.915 124.436C420.245 124.887 420.409 125.485 420.409 126.23C420.409 127.027 420.184 127.721 419.733 128.31C419.3 128.882 418.659 129.333 417.809 129.662C416.977 129.974 415.963 130.13 414.767 130.13ZM432.941 130.156C431.919 130.156 430.957 129.931 430.055 129.48C429.171 129.029 428.461 128.388 427.923 127.556L429.041 126.256C429.544 126.984 430.125 127.539 430.783 127.92C431.442 128.301 432.17 128.492 432.967 128.492C435.221 128.492 436.347 127.157 436.347 124.488V113.464H429.691V111.8H438.245V124.41C438.245 126.334 437.795 127.773 436.893 128.726C436.009 129.679 434.692 130.156 432.941 130.156ZM449.191 130.13C447.873 130.13 446.686 129.835 445.629 129.246C444.589 128.639 443.765 127.816 443.159 126.776C442.552 125.719 442.249 124.514 442.249 123.162C442.249 121.793 442.552 120.588 443.159 119.548C443.765 118.508 444.589 117.693 445.629 117.104C446.669 116.515 447.856 116.22 449.191 116.22C450.543 116.22 451.739 116.515 452.779 117.104C453.836 117.693 454.659 118.508 455.249 119.548C455.855 120.588 456.159 121.793 456.159 123.162C456.159 124.514 455.855 125.719 455.249 126.776C454.659 127.816 453.836 128.639 452.779 129.246C451.721 129.835 450.525 130.13 449.191 130.13ZM449.191 128.492C450.179 128.492 451.054 128.275 451.817 127.842C452.579 127.391 453.177 126.767 453.611 125.97C454.061 125.155 454.287 124.219 454.287 123.162C454.287 122.087 454.061 121.151 453.611 120.354C453.177 119.557 452.579 118.941 451.817 118.508C451.054 118.057 450.187 117.832 449.217 117.832C448.246 117.832 447.379 118.057 446.617 118.508C445.854 118.941 445.247 119.557 444.797 120.354C444.346 121.151 444.121 122.087 444.121 123.162C444.121 124.219 444.346 125.155 444.797 125.97C445.247 126.767 445.854 127.391 446.617 127.842C447.379 128.275 448.237 128.492 449.191 128.492ZM459.651 135.174C459.009 135.174 458.394 135.07 457.805 134.862C457.233 134.654 456.739 134.342 456.323 133.926L457.181 132.548C457.527 132.877 457.9 133.129 458.299 133.302C458.715 133.493 459.174 133.588 459.677 133.588C460.283 133.588 460.803 133.415 461.237 133.068C461.687 132.739 462.112 132.149 462.511 131.3L463.395 129.298L463.603 129.012L469.219 116.35H471.039L464.201 131.638C463.819 132.522 463.395 133.224 462.927 133.744C462.476 134.264 461.982 134.628 461.445 134.836C460.907 135.061 460.309 135.174 459.651 135.174ZM463.291 130.39L456.999 116.35H458.923L464.487 128.882L463.291 130.39ZM478.692 130.13C477.392 130.13 476.222 129.835 475.182 129.246C474.159 128.657 473.353 127.842 472.764 126.802C472.174 125.745 471.88 124.531 471.88 123.162C471.88 121.775 472.174 120.562 472.764 119.522C473.353 118.482 474.159 117.676 475.182 117.104C476.222 116.515 477.392 116.22 478.692 116.22C479.888 116.22 480.954 116.489 481.89 117.026C482.843 117.563 483.597 118.352 484.152 119.392C484.724 120.415 485.01 121.671 485.01 123.162C485.01 124.635 484.732 125.892 484.178 126.932C483.623 127.972 482.869 128.769 481.916 129.324C480.98 129.861 479.905 130.13 478.692 130.13ZM478.822 128.492C479.792 128.492 480.659 128.275 481.422 127.842C482.202 127.391 482.808 126.767 483.242 125.97C483.692 125.155 483.918 124.219 483.918 123.162C483.918 122.087 483.692 121.151 483.242 120.354C482.808 119.557 482.202 118.941 481.422 118.508C480.659 118.057 479.792 117.832 478.822 117.832C477.868 117.832 477.01 118.057 476.248 118.508C475.485 118.941 474.878 119.557 474.428 120.354C473.977 121.151 473.752 122.087 473.752 123.162C473.752 124.219 473.977 125.155 474.428 125.97C474.878 126.767 475.485 127.391 476.248 127.842C477.01 128.275 477.868 128.492 478.822 128.492ZM483.97 130V125.892L484.152 123.136L483.892 120.38V110.708H485.738V130H483.97ZM496.677 130.13C495.255 130.13 494.007 129.835 492.933 129.246C491.858 128.639 491.017 127.816 490.411 126.776C489.804 125.719 489.501 124.514 489.501 123.162C489.501 121.81 489.787 120.614 490.359 119.574C490.948 118.534 491.745 117.719 492.751 117.13C493.773 116.523 494.917 116.22 496.183 116.22C497.465 116.22 498.601 116.515 499.589 117.104C500.594 117.676 501.383 118.491 501.955 119.548C502.527 120.588 502.813 121.793 502.813 123.162C502.813 123.249 502.804 123.344 502.787 123.448C502.787 123.535 502.787 123.63 502.787 123.734H490.905V122.356H501.799L501.071 122.902C501.071 121.914 500.854 121.039 500.421 120.276C500.005 119.496 499.433 118.889 498.705 118.456C497.977 118.023 497.136 117.806 496.183 117.806C495.247 117.806 494.406 118.023 493.661 118.456C492.915 118.889 492.335 119.496 491.919 120.276C491.503 121.056 491.295 121.949 491.295 122.954V123.24C491.295 124.28 491.52 125.199 491.971 125.996C492.439 126.776 493.08 127.391 493.895 127.842C494.727 128.275 495.671 128.492 496.729 128.492C497.561 128.492 498.332 128.345 499.043 128.05C499.771 127.755 500.395 127.305 500.915 126.698L501.955 127.894C501.348 128.622 500.585 129.177 499.667 129.558C498.765 129.939 497.769 130.13 496.677 130.13ZM512.368 130.13C510.947 130.13 509.699 129.835 508.624 129.246C507.549 128.639 506.709 127.816 506.102 126.776C505.495 125.719 505.192 124.514 505.192 123.162C505.192 121.81 505.478 120.614 506.05 119.574C506.639 118.534 507.437 117.719 508.442 117.13C509.465 116.523 510.609 116.22 511.874 116.22C513.157 116.22 514.292 116.515 515.28 117.104C516.285 117.676 517.074 118.491 517.646 119.548C518.218 120.588 518.504 121.793 518.504 123.162C518.504 123.249 518.495 123.344 518.478 123.448C518.478 123.535 518.478 123.63 518.478 123.734H506.596V122.356H517.49L516.762 122.902C516.762 121.914 516.545 121.039 516.112 120.276C515.696 119.496 515.124 118.889 514.396 118.456C513.668 118.023 512.827 117.806 511.874 117.806C510.938 117.806 510.097 118.023 509.352 118.456C508.607 118.889 508.026 119.496 507.61 120.276C507.194 121.056 506.986 121.949 506.986 122.954V123.24C506.986 124.28 507.211 125.199 507.662 125.996C508.13 126.776 508.771 127.391 509.586 127.842C510.418 128.275 511.363 128.492 512.42 128.492C513.252 128.492 514.023 128.345 514.734 128.05C515.462 127.755 516.086 127.305 516.606 126.698L517.646 127.894C517.039 128.622 516.277 129.177 515.358 129.558C514.457 129.939 513.46 130.13 512.368 130.13ZM529.308 130.13C528.129 130.13 527.063 129.861 526.11 129.324C525.156 128.769 524.394 127.981 523.822 126.958C523.267 125.918 522.99 124.653 522.99 123.162C522.99 121.671 523.267 120.415 523.822 119.392C524.376 118.352 525.13 117.563 526.084 117.026C527.037 116.489 528.112 116.22 529.308 116.22C530.608 116.22 531.769 116.515 532.792 117.104C533.832 117.676 534.646 118.491 535.236 119.548C535.825 120.588 536.12 121.793 536.12 123.162C536.12 124.549 535.825 125.762 535.236 126.802C534.646 127.842 533.832 128.657 532.792 129.246C531.769 129.835 530.608 130.13 529.308 130.13ZM522.262 135.044V116.35H524.03V120.458L523.848 123.188L524.108 125.944V135.044H522.262ZM529.178 128.492C530.148 128.492 531.015 128.275 531.778 127.842C532.54 127.391 533.147 126.767 533.598 125.97C534.048 125.155 534.274 124.219 534.274 123.162C534.274 122.105 534.048 121.177 533.598 120.38C533.147 119.583 532.54 118.959 531.778 118.508C531.015 118.057 530.148 117.832 529.178 117.832C528.207 117.832 527.332 118.057 526.551 118.508C525.789 118.959 525.182 119.583 524.732 120.38C524.298 121.177 524.082 122.105 524.082 123.162C524.082 124.219 524.298 125.155 524.732 125.97C525.182 126.767 525.789 127.391 526.551 127.842C527.332 128.275 528.207 128.492 529.178 128.492ZM539.684 130.13C539.302 130.13 538.973 129.991 538.696 129.714C538.436 129.437 538.306 129.099 538.306 128.7C538.306 128.284 538.436 127.946 538.696 127.686C538.973 127.426 539.302 127.296 539.684 127.296C540.065 127.296 540.386 127.426 540.646 127.686C540.923 127.946 541.062 128.284 541.062 128.7C541.062 129.099 540.923 129.437 540.646 129.714C540.386 129.991 540.065 130.13 539.684 130.13Z" fill="white"/>
<path d="M1 1V55.4688H10.7351V10.7073H62.3854V1H1Z" stroke="#CEB7FF" stroke-width="2"/>
<path d="M882.385 365.469V311H872.65V355.761H821V365.469H882.385Z" stroke="#CEB7FF" stroke-width="2"/>
</svg>
